# xmcd
#
# Track frame offsets:
#	150
#	18855
#	39562
#	57107
#	76125
#	100957
#	120390
#	138277
#	151872
#	161725
#	207850
#	225607
#	244717
#	263700
#	278370
#
# Disc length: 3988 seconds
#
# Revision: 1
# Processed by: cddbd v1.5.2PL0 Copyright (c) Steve Scherf et al.
# Submitted via: EasyCDDAExtractor 10.0.3.1
#
DISCID=b10f920f
DTITLE=Krzysztof krawczyk - BEST COLLECTION - Jak przezyc wszystko jeszcze raz
DYEAR=1998
DGENRE=Polish
TTITLE0=Jak przeżyć wszystko jeszcze raz
TTITLE1=W naszych marzeniach nic się nie zmienia
TTITLE2=Byle było tak
TTITLE3=Idę już
TTITLE4=Rysunek na szkle
TTITLE5=Za tobą pójdę jak na bal
TTITLE6=Jak minął dzień
TTITLE7=Parostatek
TTITLE8=Zabawa w stylu folk
TTITLE9=Medley
TTITLE10=Kręci się Ziemia
TTITLE11=To słowo zna cały świat
TTITLE12=Pamiętam Ciebie z tamtych lat
TTITLE13=Motyw z filmu "Diabelskie szczęście"
TTITLE14=To co dał nam świat
EXTD=
EXTT0=
EXTT1=
EXTT2=
EXTT3=
EXTT4=
EXTT5=
EXTT6=
EXTT7=
EXTT8=
EXTT9=
EXTT10=
EXTT11=
EXTT12=
EXTT13=
EXTT14=
PLAYORDER=
